<mxfile host="app.diagrams.net" modified="2022-04-13T16:11:25.245Z" agent="5.0 (Windows)" etag="YAXF7VIlHo51PcSOj3ME" version="17.4.3" type="github">
  <diagram id="AwQgiTbu9Bw1cx0Kdg-x" name="Page-1">
    <mxGraphModel dx="446" dy="253" grid="1" gridSize="10" guides="1" tooltips="1" connect="1" arrows="1" fold="1" page="1" pageScale="1" pageWidth="827" pageHeight="1169" math="0" shadow="0">
      <root>
        <mxCell id="0" />
        <mxCell id="1" parent="0" />
        <mxCell id="wkAVa-7YM3MRuRVqWaLZ-1" value="&lt;div&gt;ESCOLA&lt;/div&gt;&lt;div&gt;INSTITUIÇÃO&lt;br&gt;&lt;/div&gt;" style="rounded=0;whiteSpace=wrap;html=1;fillColor=#d5e8d4;strokeColor=#82b366;" vertex="1" parent="1">
          <mxGeometry x="334" y="10" width="160" height="70" as="geometry" />
        </mxCell>
        <mxCell id="wkAVa-7YM3MRuRVqWaLZ-2" value="TURMAS" style="rounded=0;whiteSpace=wrap;html=1;fillColor=#d5e8d4;strokeColor=#82b366;" vertex="1" parent="1">
          <mxGeometry x="354" y="160" width="120" height="60" as="geometry" />
        </mxCell>
        <mxCell id="wkAVa-7YM3MRuRVqWaLZ-8" value="PROFESSOR" style="swimlane;fontStyle=0;childLayout=stackLayout;horizontal=1;startSize=30;horizontalStack=0;resizeParent=1;resizeParentMax=0;resizeLast=0;collapsible=1;marginBottom=0;fillColor=#fff2cc;strokeColor=#d6b656;" vertex="1" parent="1">
          <mxGeometry x="100" y="310" width="140" height="90" as="geometry" />
        </mxCell>
        <mxCell id="wkAVa-7YM3MRuRVqWaLZ-9" value="Titulação: NUM" style="text;strokeColor=#666666;fillColor=#f5f5f5;align=left;verticalAlign=middle;spacingLeft=4;spacingRight=4;overflow=hidden;points=[[0,0.5],[1,0.5]];portConstraint=eastwest;rotatable=0;fontColor=#333333;" vertex="1" parent="wkAVa-7YM3MRuRVqWaLZ-8">
          <mxGeometry y="30" width="140" height="30" as="geometry" />
        </mxCell>
        <mxCell id="wkAVa-7YM3MRuRVqWaLZ-10" value="Nº do R I: NUM" style="text;strokeColor=#666666;fillColor=#f5f5f5;align=left;verticalAlign=middle;spacingLeft=4;spacingRight=4;overflow=hidden;points=[[0,0.5],[1,0.5]];portConstraint=eastwest;rotatable=0;fontColor=#333333;" vertex="1" parent="wkAVa-7YM3MRuRVqWaLZ-8">
          <mxGeometry y="60" width="140" height="30" as="geometry" />
        </mxCell>
        <mxCell id="wkAVa-7YM3MRuRVqWaLZ-12" value="ALUNO" style="swimlane;fontStyle=0;childLayout=stackLayout;horizontal=1;startSize=30;horizontalStack=0;resizeParent=1;resizeParentMax=0;resizeLast=0;collapsible=1;marginBottom=0;fillColor=#fff2cc;strokeColor=#d6b656;" vertex="1" parent="1">
          <mxGeometry x="570" y="316" width="140" height="120" as="geometry" />
        </mxCell>
        <mxCell id="wkAVa-7YM3MRuRVqWaLZ-13" value="Curso: STRING" style="text;align=left;verticalAlign=middle;spacingLeft=4;spacingRight=4;overflow=hidden;points=[[0,0.5],[1,0.5]];portConstraint=eastwest;rotatable=0;fillColor=#eeeeee;strokeColor=#36393d;" vertex="1" parent="wkAVa-7YM3MRuRVqWaLZ-12">
          <mxGeometry y="30" width="140" height="30" as="geometry" />
        </mxCell>
        <mxCell id="wkAVa-7YM3MRuRVqWaLZ-15" value="Matricula: NUM" style="text;strokeColor=#666666;fillColor=#f5f5f5;align=left;verticalAlign=middle;spacingLeft=4;spacingRight=4;overflow=hidden;points=[[0,0.5],[1,0.5]];portConstraint=eastwest;rotatable=0;fontColor=#333333;" vertex="1" parent="wkAVa-7YM3MRuRVqWaLZ-12">
          <mxGeometry y="60" width="140" height="30" as="geometry" />
        </mxCell>
        <mxCell id="wkAVa-7YM3MRuRVqWaLZ-20" value="Ano Ingresso: NUM" style="text;strokeColor=#666666;fillColor=#f5f5f5;align=left;verticalAlign=middle;spacingLeft=4;spacingRight=4;overflow=hidden;points=[[0,0.5],[1,0.5]];portConstraint=eastwest;rotatable=0;fontColor=#333333;" vertex="1" parent="wkAVa-7YM3MRuRVqWaLZ-12">
          <mxGeometry y="90" width="140" height="30" as="geometry" />
        </mxCell>
        <mxCell id="wkAVa-7YM3MRuRVqWaLZ-16" value="PESSOA" style="swimlane;fontStyle=0;childLayout=stackLayout;horizontal=1;startSize=30;horizontalStack=0;resizeParent=1;resizeParentMax=0;resizeLast=0;collapsible=1;marginBottom=0;fillColor=#fff2cc;strokeColor=#d6b656;" vertex="1" parent="1">
          <mxGeometry x="331" y="436" width="140" height="120" as="geometry" />
        </mxCell>
        <mxCell id="wkAVa-7YM3MRuRVqWaLZ-17" value="Nome: STRING" style="text;strokeColor=#666666;fillColor=#f5f5f5;align=left;verticalAlign=middle;spacingLeft=4;spacingRight=4;overflow=hidden;points=[[0,0.5],[1,0.5]];portConstraint=eastwest;rotatable=0;fontColor=#333333;" vertex="1" parent="wkAVa-7YM3MRuRVqWaLZ-16">
          <mxGeometry y="30" width="140" height="30" as="geometry" />
        </mxCell>
        <mxCell id="wkAVa-7YM3MRuRVqWaLZ-18" value="Endereço: STRING" style="text;strokeColor=#666666;fillColor=#f5f5f5;align=left;verticalAlign=middle;spacingLeft=4;spacingRight=4;overflow=hidden;points=[[0,0.5],[1,0.5]];portConstraint=eastwest;rotatable=0;fontColor=#333333;" vertex="1" parent="wkAVa-7YM3MRuRVqWaLZ-16">
          <mxGeometry y="60" width="140" height="30" as="geometry" />
        </mxCell>
        <mxCell id="wkAVa-7YM3MRuRVqWaLZ-19" value="CPF: NUM" style="text;strokeColor=#666666;fillColor=#f5f5f5;align=left;verticalAlign=middle;spacingLeft=4;spacingRight=4;overflow=hidden;points=[[0,0.5],[1,0.5]];portConstraint=eastwest;rotatable=0;fontColor=#333333;" vertex="1" parent="wkAVa-7YM3MRuRVqWaLZ-16">
          <mxGeometry y="90" width="140" height="30" as="geometry" />
        </mxCell>
        <mxCell id="wkAVa-7YM3MRuRVqWaLZ-27" value="Agregração" style="endArrow=open;html=1;endSize=12;startArrow=diamondThin;startSize=14;startFill=0;edgeStyle=orthogonalEdgeStyle;rounded=0;fontSize=15;" edge="1" parent="1">
          <mxGeometry x="0.0667" relative="1" as="geometry">
            <mxPoint x="194" y="300" as="sourcePoint" />
            <mxPoint x="354" y="190" as="targetPoint" />
            <Array as="points">
              <mxPoint x="194" y="190" />
            </Array>
            <mxPoint as="offset" />
          </mxGeometry>
        </mxCell>
        <mxCell id="wkAVa-7YM3MRuRVqWaLZ-28" value="1" style="edgeLabel;resizable=0;html=1;align=left;verticalAlign=top;fontStyle=1;fontSize=15;" connectable="0" vertex="1" parent="wkAVa-7YM3MRuRVqWaLZ-27">
          <mxGeometry x="-1" relative="1" as="geometry">
            <mxPoint x="10" y="-30" as="offset" />
          </mxGeometry>
        </mxCell>
        <mxCell id="wkAVa-7YM3MRuRVqWaLZ-29" value="1...*" style="edgeLabel;resizable=0;html=1;align=right;verticalAlign=top;fontStyle=1;fontSize=15;" connectable="0" vertex="1" parent="wkAVa-7YM3MRuRVqWaLZ-27">
          <mxGeometry x="1" relative="1" as="geometry">
            <mxPoint x="-20" y="-2" as="offset" />
          </mxGeometry>
        </mxCell>
        <mxCell id="wkAVa-7YM3MRuRVqWaLZ-31" value="" style="endArrow=diamondThin;endFill=1;endSize=24;html=1;rounded=0;fontSize=15;exitX=0.5;exitY=0;exitDx=0;exitDy=0;" edge="1" parent="1" source="wkAVa-7YM3MRuRVqWaLZ-2">
          <mxGeometry width="160" relative="1" as="geometry">
            <mxPoint x="414" y="150" as="sourcePoint" />
            <mxPoint x="414" y="80" as="targetPoint" />
            <Array as="points" />
          </mxGeometry>
        </mxCell>
        <mxCell id="wkAVa-7YM3MRuRVqWaLZ-33" value="Agregação" style="endArrow=open;html=1;endSize=12;startArrow=diamondThin;startSize=14;startFill=0;edgeStyle=orthogonalEdgeStyle;rounded=0;fontSize=15;exitX=0.5;exitY=0;exitDx=0;exitDy=0;" edge="1" parent="1" source="wkAVa-7YM3MRuRVqWaLZ-12" target="wkAVa-7YM3MRuRVqWaLZ-2">
          <mxGeometry relative="1" as="geometry">
            <mxPoint x="640" y="248.64" as="sourcePoint" />
            <mxPoint x="484" y="160" as="targetPoint" />
            <Array as="points">
              <mxPoint x="640" y="190" />
            </Array>
          </mxGeometry>
        </mxCell>
        <mxCell id="wkAVa-7YM3MRuRVqWaLZ-34" value="0..n" style="edgeLabel;resizable=0;html=1;align=left;verticalAlign=top;fontSize=15;" connectable="0" vertex="1" parent="wkAVa-7YM3MRuRVqWaLZ-33">
          <mxGeometry x="-1" relative="1" as="geometry">
            <mxPoint x="20" y="-10" as="offset" />
          </mxGeometry>
        </mxCell>
        <mxCell id="wkAVa-7YM3MRuRVqWaLZ-35" value="&lt;b&gt;1...5&lt;/b&gt;" style="edgeLabel;resizable=0;html=1;align=right;verticalAlign=top;fontSize=15;" connectable="0" vertex="1" parent="wkAVa-7YM3MRuRVqWaLZ-33">
          <mxGeometry x="1" relative="1" as="geometry">
            <mxPoint x="56" as="offset" />
          </mxGeometry>
        </mxCell>
        <mxCell id="wkAVa-7YM3MRuRVqWaLZ-36" value="" style="shape=line;html=1;strokeWidth=6;strokeColor=#ff0000;fontSize=15;" vertex="1" parent="1">
          <mxGeometry x="240" y="356" width="330" height="10" as="geometry" />
        </mxCell>
        <mxCell id="wkAVa-7YM3MRuRVqWaLZ-37" value="" style="edgeStyle=orthogonalEdgeStyle;html=1;verticalAlign=bottom;endArrow=open;endSize=8;strokeColor=#ff0000;rounded=0;fontSize=15;exitX=0.491;exitY=0.46;exitDx=0;exitDy=0;exitPerimeter=0;" edge="1" source="wkAVa-7YM3MRuRVqWaLZ-36" parent="1">
          <mxGeometry relative="1" as="geometry">
            <mxPoint x="402.98" y="436" as="targetPoint" />
            <mxPoint x="403" y="370" as="sourcePoint" />
            <Array as="points">
              <mxPoint x="403" y="361" />
            </Array>
          </mxGeometry>
        </mxCell>
      </root>
    </mxGraphModel>
  </diagram>
</mxfile>
